# xmcd CD database file generated by OrangeCD 5.1
#
# Track frame offsets:
#	150
#	15297
#	29322
#
# Disc length: 602 seconds
#
# Revision: 1
# Processed by: cddbd v1.5PL3 Copyright (c) Steve Scherf et al.
# Submitted via: OrangeCD 5.1
#
DISCID=13025803
DTITLE=Travis - Turn [CD 2)
DYEAR=1999
DGENRE=Indie
TTITLE0=Turn (Radio Edit)
TTITLE1=We Are Monkeys
TTITLE2=Baby One More Time
EXTD=
EXTT0=
EXTT1=
EXTT2=
PLAYORDER=
